<svg width="680" height="240" viewBox="0 0 680 240" xmlns="http://www.w3.org/2000/svg" role="img" aria-label="Vellum fractal lattice motif">
  <defs>
    <linearGradient id="m-g" x1="0" y1="0" x2="1" y2="1">
      <stop offset="0%" stop-color="#D8B569"/><stop offset="100%" stop-color="#A8823C"/>
    </linearGradient>
  </defs>
  <g stroke="url(#m-g)" fill="none" opacity="0.85">
    <g transform="translate(120,120)">
      <line x1="-72" y1="0" x2="72" y2="0" stroke-width="1" opacity="0.6"/>
      <line x1="0" y1="-72" x2="0" y2="72" stroke-width="1" opacity="0.6"/>
      <polygon points="0,-72 72,0 0,72 -72,0" stroke-width="2" stroke-linejoin="round"/>
      <polygon points="0,-36 36,0 0,36 -36,0" stroke-width="1.4" stroke-linejoin="round"/>
      <polygon points="0,-18 18,0 0,18 -18,0" stroke-width="1" stroke-linejoin="round"/>
    </g>
    <g transform="translate(340,120)" opacity="0.75">
      <line x1="-90" y1="0" x2="90" y2="0" stroke-width="1" opacity="0.6"/>
      <line x1="0" y1="-90" x2="0" y2="90" stroke-width="1" opacity="0.6"/>
      <polygon points="0,-90 90,0 0,90 -90,0" stroke-width="2" stroke-linejoin="round"/>
      <polygon points="0,-45 45,0 0,45 -45,0" stroke-width="1.4" stroke-linejoin="round"/>
      <polygon points="45,-45 90,0 45,45 0,0" stroke-width="0.8" stroke-linejoin="round" opacity="0.5"/>
      <polygon points="-45,-45 0,0 -45,45 -90,0" stroke-width="0.8" stroke-linejoin="round" opacity="0.5"/>
    </g>
    <g transform="translate(560,120)" opacity="0.7">
      <polygon points="0,-72 72,0 0,72 -72,0" stroke-width="2" stroke-linejoin="round"/>
      <polygon points="0,-36 36,0 0,36 -36,0" stroke-width="1.4" stroke-linejoin="round"/>
      <line x1="-72" y1="0" x2="72" y2="0" stroke-width="1" opacity="0.6"/>
      <line x1="0" y1="-72" x2="0" y2="72" stroke-width="1" opacity="0.6"/>
    </g>
  </g>
  <g fill="#C9A35A" opacity="0.9">
    <circle cx="120" cy="120" r="3.5"/><circle cx="340" cy="120" r="3.5"/><circle cx="560" cy="120" r="3.5"/>
  </g>
</svg>
